<svg width="36" height="38" viewBox="0 0 36 38" fill="none" xmlns="http://www.w3.org/2000/svg">
<path d="M33.9601 37.7946H1.59196C0.854684 37.7946 0.243286 37.1832 0.243286 36.446C0.243286 35.7087 0.854684 35.0973 1.59196 35.0973H33.9601C34.6974 35.0973 35.3088 35.7087 35.3088 36.446C35.3088 37.1832 34.6974 37.7946 33.9601 37.7946Z" fill="white"/>
<path d="M6.26731 11.9523H3.39015C2.40112 11.9523 1.59192 12.7615 1.59192 13.7505V29.2512C1.59192 30.2402 2.40112 31.0494 3.39015 31.0494H6.26731C7.25634 31.0494 8.06554 30.2402 8.06554 29.2512V13.7505C8.06554 12.7435 7.25634 11.9523 6.26731 11.9523Z" fill="white"/>
<path d="M19.2131 6.22021H16.3359C15.3469 6.22021 14.5377 7.02942 14.5377 8.01844V29.2555C14.5377 30.2445 15.3469 31.0537 16.3359 31.0537H19.2131C20.2021 31.0537 21.0113 30.2445 21.0113 29.2555V8.01844C21.0113 7.02942 20.2021 6.22021 19.2131 6.22021Z" fill="white"/>
<path d="M32.1626 0.481384H29.2854C28.2964 0.481384 27.4872 1.29059 27.4872 2.27961V29.253C27.4872 30.2421 28.2964 31.0513 29.2854 31.0513H32.1626C33.1516 31.0513 33.9608 30.2421 33.9608 29.253V2.27961C33.9608 1.29059 33.1516 0.481384 32.1626 0.481384Z" fill="white"/>
</svg>
