<svg width="36" height="39" viewBox="0 0 36 39" fill="none" xmlns="http://www.w3.org/2000/svg">
<path d="M20.0646 1.3839C18.9501 0.330205 17.2068 0.330205 16.0923 1.3839L2.08958 14.6229C1.2232 15.442 0.7323 16.5817 0.7323 17.774V33.8749C0.7323 36.2698 2.67383 38.2114 5.06884 38.2114H9.40539C11.8004 38.2114 13.7419 36.2698 13.7419 33.8749V26.6473C13.7419 25.8491 14.3891 25.2019 15.1874 25.2019H20.9695C21.7678 25.2019 22.415 25.8491 22.415 26.6473V33.8749C22.415 36.2698 24.3566 38.2114 26.7516 38.2114H31.0881C33.483 38.2114 35.4246 36.2698 35.4246 33.8749V17.774C35.4246 16.5817 34.9337 15.442 34.0673 14.6229L20.0646 1.3839Z" fill="white"/>
</svg>
