<svg width="72" height="71" viewBox="0 0 72 71" fill="none" xmlns="http://www.w3.org/2000/svg">
<path d="M62.8487 37.0479C63.3577 39.0444 65.1789 40.525 67.3508 40.525C69.9186 40.525 72 38.4611 72 35.915C72 33.3689 69.9186 31.3051 67.3508 31.3051C65.1563 31.3051 63.3125 32.8305 62.8261 34.8719H50.8808C50.8808 33.9073 50.8468 32.9314 50.8016 31.9556L50.7337 30.8003C50.7337 30.8003 50.7337 30.7891 50.7337 30.7779L50.6658 29.7796C50.6658 29.6787 50.6432 29.5777 50.6432 29.4768H54.6137L60.1565 24.2499H62.8487C63.369 26.2352 65.1789 27.7046 67.3395 27.7046C69.9073 27.7046 71.9887 25.6408 71.9887 23.0946C71.9887 20.5485 69.9073 18.4847 67.3395 18.4847C65.1337 18.4847 63.2786 20.0213 62.8035 22.0739H59.2742L53.7313 27.3008H50.4283C50.3152 26.2689 50.1794 25.2594 50.0097 24.2499H50.0211L49.7948 22.9712L49.6364 22.0739C47.0121 8.63665 40.7906 0 33.6415 0H17.3185C17.2958 0 17.2732 0 17.2506 0C12.477 0 8.07667 3.80237 4.83016 10.7117C1.7194 17.3518 0 26.1567 0 35.5C0 44.8433 1.7194 53.6482 4.83016 60.2883C8.06536 67.1976 12.477 71 17.2393 71H33.6302C37.216 71 40.6322 68.8352 43.5054 64.7412C46.0619 61.0959 48.0641 56.1046 49.3423 50.2608L49.4668 49.6327C49.4894 49.5542 49.5007 49.4645 49.5233 49.3859L49.7835 48.0848H49.7609C49.9419 47.0866 50.1002 46.0771 50.236 45.0564H53.6748L59.2176 50.2833H62.7582C63.1881 52.3807 65.0658 53.9622 67.3169 53.9622C69.8847 53.9622 71.9661 51.8984 71.9661 49.3523C71.9661 46.8062 69.8847 44.7423 67.3169 44.7423C65.1903 44.7423 63.403 46.1668 62.8487 48.1073H60.0999L54.5571 42.8804H50.4961C50.5188 42.6897 50.5414 42.4878 50.5527 42.2972L50.6319 41.2877C50.6319 41.2092 50.6319 41.1194 50.6432 41.0409L50.7111 40.11C50.7789 39.1005 50.8129 38.0798 50.8355 37.0591H62.8035L62.8487 37.0479ZM32.1031 40.8502L32.0804 41.097C31.8655 43.8002 31.5035 46.4472 30.9945 48.9373L30.9379 49.1953C29.7502 54.882 27.8272 59.8172 25.4404 63.2943C21.1871 57.1028 18.5854 46.6379 18.5854 35.4888C18.5854 24.3396 21.1871 13.8747 25.4404 7.68325C28.0534 11.4968 30.0896 16.9817 31.2434 23.3526C31.6845 25.7866 31.9899 28.3327 32.1483 30.9237C32.2388 32.4603 32.2954 33.997 32.2954 35.5C32.2954 37.2946 32.2275 39.0893 32.0918 40.8502H32.1031ZM48.4713 29.7796H34.2749C34.1279 27.9065 33.913 26.0558 33.6302 24.2611H47.8039C48.098 26.067 48.3243 27.9065 48.4713 29.7796ZM47.3967 22.0851H33.2342C32.0578 16.0507 30.0782 10.7902 27.567 6.94297H27.7141L26.8544 5.86619C28.9697 3.45466 31.2999 2.17599 33.6415 2.17599C39.5236 2.17599 44.976 10.1172 47.3967 22.0851ZM6.82105 59.3686C3.83472 53.0088 2.1945 44.5292 2.1945 35.5C2.1945 26.4708 3.83472 17.9912 6.82105 11.6314C9.68295 5.5297 13.3819 2.17599 17.2506 2.17599C19.5582 2.17599 21.8658 3.42101 23.9585 5.77646C23.9811 5.79889 24.0038 5.83254 24.0377 5.85498L23.178 6.93175H23.3137C18.9587 13.5719 16.4022 24.0256 16.4022 35.4888C16.4022 46.952 18.9587 57.4169 23.3251 64.0458H23.1893L24.0377 65.1226C21.9224 67.5341 19.5808 68.8128 17.2506 68.8128C13.3932 68.8128 9.68295 65.4591 6.83236 59.3686H6.82105ZM33.6415 68.824C31.2999 68.824 28.9697 67.5566 26.8544 65.1338L27.7027 64.057H27.567C29.9086 60.4902 31.7524 55.7793 32.9628 50.2496H47.1139C44.5687 61.41 39.2408 68.824 33.6415 68.824ZM47.5551 48.0736H33.3926C33.732 46.2005 33.9921 44.26 34.1731 42.2747H48.3582C48.1659 44.26 47.8944 46.2005 47.5438 48.0736H47.5551ZM34.3541 40.0987C34.4446 38.5733 34.4899 37.0367 34.4899 35.5C34.4899 34.3335 34.4559 33.1446 34.4107 31.9668H48.6071C48.6636 33.1558 48.6976 34.3335 48.6976 35.5C48.6976 37.0367 48.6523 38.5733 48.5505 40.0987H34.3541Z" fill="#EFEFEF"/>
</svg>
