<svg width="37" height="39" viewBox="0 0 37 39" fill="none" xmlns="http://www.w3.org/2000/svg">
<path d="M36.4429 23.6713L33.1937 21.795C33.5217 20.0255 33.5217 18.2102 33.1937 16.4407L36.4429 14.5644C36.8166 14.3508 36.9844 13.9085 36.8624 13.4966C36.0158 10.7813 34.5742 8.3253 32.6903 6.2812C32.4005 5.96848 31.9276 5.89221 31.5615 6.10578L28.3123 7.98208C26.947 6.80748 25.3758 5.89984 23.6749 5.30491V1.55993C23.6749 1.13281 23.3774 0.759072 22.9579 0.667545C20.1587 0.0421108 17.2909 0.0726198 14.629 0.667545C14.2095 0.759072 13.912 1.13281 13.912 1.55993V5.31254C12.2188 5.91509 10.6475 6.82274 9.27463 7.98971L6.03305 6.1134C5.65932 5.89984 5.19406 5.96848 4.90422 6.28883C3.02029 8.3253 1.57874 10.7813 0.732114 13.5042C0.602451 13.9161 0.777877 14.3585 1.15161 14.572L4.40082 16.4483C4.07285 18.2178 4.07285 20.0331 4.40082 21.8027L1.15161 23.679C0.777877 23.8925 0.610078 24.3349 0.732114 24.7468C1.57874 27.4621 3.02029 29.9181 4.90422 31.9622C5.19406 32.2749 5.66694 32.3511 6.03305 32.1376L9.28226 30.2613C10.6475 31.4359 12.2188 32.3435 13.9196 32.9384V36.691C13.9196 37.1182 14.2171 37.4919 14.6366 37.5834C17.4358 38.2089 20.3036 38.1784 22.9656 37.5834C23.385 37.4919 23.6825 37.1182 23.6825 36.691V32.9384C25.3758 32.3359 26.947 31.4282 28.3199 30.2613L31.5691 32.1376C31.9428 32.3511 32.4081 32.2825 32.6979 31.9622C34.5819 29.9257 36.0234 27.4697 36.87 24.7468C36.9844 24.3273 36.8166 23.8849 36.4429 23.6713ZM18.7934 25.2197C15.4298 25.2197 12.6916 22.4815 12.6916 19.1179C12.6916 15.7542 15.4298 13.0161 18.7934 13.0161C22.1571 13.0161 24.8952 15.7542 24.8952 19.1179C24.8952 22.4815 22.1571 25.2197 18.7934 25.2197Z" fill="white"/>
</svg>
