<svg width="34" height="38" viewBox="0 0 34 38" fill="none" xmlns="http://www.w3.org/2000/svg">
<path d="M16.7269 19.2202C21.9021 19.2202 26.0963 15.0259 26.0963 9.85081C26.0963 4.6757 21.9021 0.481445 16.7269 0.481445C11.5518 0.481445 7.35759 4.6757 7.35759 9.85081C7.35759 15.0259 11.5518 19.2202 16.7269 19.2202ZM23.2855 21.5625H22.0631C20.4381 22.3091 18.6301 22.7337 16.7269 22.7337C14.8238 22.7337 13.0231 22.3091 11.3908 21.5625H10.1684C4.73709 21.5625 0.330566 25.969 0.330566 31.4003V34.4454C0.330566 36.3851 1.90433 37.9589 3.84408 37.9589H29.6098C31.5496 37.9589 33.1233 36.3851 33.1233 34.4454V31.4003C33.1233 25.969 28.7168 21.5625 23.2855 21.5625Z" fill="white"/>
</svg>
